<mxfile host="app.diagrams.net" modified="2023-08-04T15:53:30.142Z" agent="Mozilla/5.0 (Windows NT 10.0; Win64; x64) AppleWebKit/537.36 (KHTML, like Gecko) Chrome/115.0.0.0 Safari/537.36" etag="U8LN80ChLKDkeOcF9KHu" version="21.6.6" type="github">
  <diagram id="C5RBs43oDa-KdzZeNtuy" name="Page-1">
    <mxGraphModel dx="1035" dy="669" grid="1" gridSize="10" guides="1" tooltips="1" connect="1" arrows="1" fold="1" page="1" pageScale="1" pageWidth="827" pageHeight="1169" math="0" shadow="0">
      <root>
        <mxCell id="WIyWlLk6GJQsqaUBKTNV-0" />
        <mxCell id="WIyWlLk6GJQsqaUBKTNV-1" parent="WIyWlLk6GJQsqaUBKTNV-0" />
        <mxCell id="9D6zw0flPlgYOmCyrL12-0" value="Cliente" style="shape=umlActor;verticalLabelPosition=bottom;verticalAlign=top;html=1;outlineConnect=0;" vertex="1" parent="WIyWlLk6GJQsqaUBKTNV-1">
          <mxGeometry x="10" y="10" width="30" height="60" as="geometry" />
        </mxCell>
        <mxCell id="9D6zw0flPlgYOmCyrL12-1" value="" style="endArrow=classic;html=1;rounded=0;entryX=-0.033;entryY=0.4;entryDx=0;entryDy=0;entryPerimeter=0;" edge="1" parent="WIyWlLk6GJQsqaUBKTNV-1" source="9D6zw0flPlgYOmCyrL12-12" target="9D6zw0flPlgYOmCyrL12-2">
          <mxGeometry width="50" height="50" relative="1" as="geometry">
            <mxPoint x="80" y="65" as="sourcePoint" />
            <mxPoint x="190" y="80" as="targetPoint" />
          </mxGeometry>
        </mxCell>
        <mxCell id="9D6zw0flPlgYOmCyrL12-110" style="edgeStyle=orthogonalEdgeStyle;rounded=0;orthogonalLoop=1;jettySize=auto;html=1;entryX=0.75;entryY=0;entryDx=0;entryDy=0;" edge="1" parent="WIyWlLk6GJQsqaUBKTNV-1" source="9D6zw0flPlgYOmCyrL12-2" target="9D6zw0flPlgYOmCyrL12-40">
          <mxGeometry relative="1" as="geometry" />
        </mxCell>
        <mxCell id="9D6zw0flPlgYOmCyrL12-2" value="Bot Whatsapp" style="rounded=1;whiteSpace=wrap;html=1;" vertex="1" parent="WIyWlLk6GJQsqaUBKTNV-1">
          <mxGeometry x="170" y="20" width="120" height="40" as="geometry" />
        </mxCell>
        <mxCell id="9D6zw0flPlgYOmCyrL12-132" style="edgeStyle=orthogonalEdgeStyle;rounded=0;orthogonalLoop=1;jettySize=auto;html=1;entryX=0;entryY=0.5;entryDx=0;entryDy=0;" edge="1" parent="WIyWlLk6GJQsqaUBKTNV-1" source="9D6zw0flPlgYOmCyrL12-18" target="9D6zw0flPlgYOmCyrL12-106">
          <mxGeometry relative="1" as="geometry" />
        </mxCell>
        <mxCell id="9D6zw0flPlgYOmCyrL12-18" value="Etapa 0&lt;br&gt;Boas vindas" style="rhombus;whiteSpace=wrap;html=1;rounded=1;arcSize=13;" vertex="1" parent="WIyWlLk6GJQsqaUBKTNV-1">
          <mxGeometry x="200" y="440" width="80" height="80" as="geometry" />
        </mxCell>
        <mxCell id="9D6zw0flPlgYOmCyrL12-58" value="" style="edgeStyle=orthogonalEdgeStyle;rounded=0;orthogonalLoop=1;jettySize=auto;html=1;" edge="1" parent="WIyWlLk6GJQsqaUBKTNV-1" source="9D6zw0flPlgYOmCyrL12-40" target="9D6zw0flPlgYOmCyrL12-57">
          <mxGeometry relative="1" as="geometry" />
        </mxCell>
        <mxCell id="9D6zw0flPlgYOmCyrL12-40" value="Procura registro no banco de dados" style="rounded=0;whiteSpace=wrap;html=1;" vertex="1" parent="WIyWlLk6GJQsqaUBKTNV-1">
          <mxGeometry x="140" y="110" width="120" height="60" as="geometry" />
        </mxCell>
        <mxCell id="9D6zw0flPlgYOmCyrL12-80" value="" style="edgeStyle=orthogonalEdgeStyle;rounded=0;orthogonalLoop=1;jettySize=auto;html=1;" edge="1" parent="WIyWlLk6GJQsqaUBKTNV-1" source="9D6zw0flPlgYOmCyrL12-43" target="9D6zw0flPlgYOmCyrL12-79">
          <mxGeometry relative="1" as="geometry">
            <Array as="points">
              <mxPoint x="590" y="180" />
              <mxPoint x="590" y="180" />
            </Array>
          </mxGeometry>
        </mxCell>
        <mxCell id="9D6zw0flPlgYOmCyrL12-43" value="Acessa o banco de dados pela API" style="shape=process;whiteSpace=wrap;html=1;backgroundOutline=1;" vertex="1" parent="WIyWlLk6GJQsqaUBKTNV-1">
          <mxGeometry x="490" y="90" width="120" height="60" as="geometry" />
        </mxCell>
        <mxCell id="9D6zw0flPlgYOmCyrL12-44" value="" style="shape=cylinder3;whiteSpace=wrap;html=1;boundedLbl=1;backgroundOutline=1;size=15;" vertex="1" parent="WIyWlLk6GJQsqaUBKTNV-1">
          <mxGeometry x="740" y="80" width="60" height="80" as="geometry" />
        </mxCell>
        <mxCell id="9D6zw0flPlgYOmCyrL12-66" style="edgeStyle=orthogonalEdgeStyle;rounded=0;orthogonalLoop=1;jettySize=auto;html=1;" edge="1" parent="WIyWlLk6GJQsqaUBKTNV-1" source="9D6zw0flPlgYOmCyrL12-57" target="9D6zw0flPlgYOmCyrL12-62">
          <mxGeometry relative="1" as="geometry" />
        </mxCell>
        <mxCell id="9D6zw0flPlgYOmCyrL12-67" value="Sim" style="edgeLabel;html=1;align=center;verticalAlign=middle;resizable=0;points=[];" vertex="1" connectable="0" parent="9D6zw0flPlgYOmCyrL12-66">
          <mxGeometry x="-0.4804" relative="1" as="geometry">
            <mxPoint as="offset" />
          </mxGeometry>
        </mxCell>
        <mxCell id="9D6zw0flPlgYOmCyrL12-86" value="" style="edgeStyle=orthogonalEdgeStyle;rounded=0;orthogonalLoop=1;jettySize=auto;html=1;" edge="1" parent="WIyWlLk6GJQsqaUBKTNV-1" source="9D6zw0flPlgYOmCyrL12-57" target="9D6zw0flPlgYOmCyrL12-85">
          <mxGeometry relative="1" as="geometry">
            <Array as="points">
              <mxPoint x="310" y="250" />
              <mxPoint x="310" y="250" />
            </Array>
          </mxGeometry>
        </mxCell>
        <mxCell id="9D6zw0flPlgYOmCyrL12-87" value="NÃ£o" style="edgeLabel;html=1;align=center;verticalAlign=middle;resizable=0;points=[];" vertex="1" connectable="0" parent="9D6zw0flPlgYOmCyrL12-86">
          <mxGeometry x="-0.3235" relative="1" as="geometry">
            <mxPoint as="offset" />
          </mxGeometry>
        </mxCell>
        <mxCell id="9D6zw0flPlgYOmCyrL12-57" value="Tem registro no sistema?" style="rhombus;whiteSpace=wrap;html=1;rounded=0;" vertex="1" parent="WIyWlLk6GJQsqaUBKTNV-1">
          <mxGeometry x="105" y="210" width="80" height="80" as="geometry" />
        </mxCell>
        <mxCell id="9D6zw0flPlgYOmCyrL12-82" style="edgeStyle=orthogonalEdgeStyle;rounded=0;orthogonalLoop=1;jettySize=auto;html=1;" edge="1" parent="WIyWlLk6GJQsqaUBKTNV-1" source="9D6zw0flPlgYOmCyrL12-62" target="9D6zw0flPlgYOmCyrL12-79">
          <mxGeometry relative="1" as="geometry" />
        </mxCell>
        <mxCell id="9D6zw0flPlgYOmCyrL12-99" style="edgeStyle=orthogonalEdgeStyle;rounded=0;orthogonalLoop=1;jettySize=auto;html=1;entryX=0.5;entryY=0;entryDx=0;entryDy=0;" edge="1" parent="WIyWlLk6GJQsqaUBKTNV-1" source="9D6zw0flPlgYOmCyrL12-62" target="9D6zw0flPlgYOmCyrL12-18">
          <mxGeometry relative="1" as="geometry">
            <Array as="points">
              <mxPoint x="240" y="430" />
              <mxPoint x="240" y="430" />
            </Array>
          </mxGeometry>
        </mxCell>
        <mxCell id="9D6zw0flPlgYOmCyrL12-128" style="edgeStyle=orthogonalEdgeStyle;rounded=0;orthogonalLoop=1;jettySize=auto;html=1;" edge="1" parent="WIyWlLk6GJQsqaUBKTNV-1" source="9D6zw0flPlgYOmCyrL12-62" target="9D6zw0flPlgYOmCyrL12-91">
          <mxGeometry relative="1" as="geometry">
            <Array as="points">
              <mxPoint x="190" y="560" />
              <mxPoint x="190" y="560" />
            </Array>
          </mxGeometry>
        </mxCell>
        <mxCell id="9D6zw0flPlgYOmCyrL12-129" style="edgeStyle=orthogonalEdgeStyle;rounded=0;orthogonalLoop=1;jettySize=auto;html=1;" edge="1" parent="WIyWlLk6GJQsqaUBKTNV-1" source="9D6zw0flPlgYOmCyrL12-62" target="9D6zw0flPlgYOmCyrL12-93">
          <mxGeometry relative="1" as="geometry">
            <Array as="points">
              <mxPoint x="140" y="750" />
              <mxPoint x="140" y="750" />
            </Array>
          </mxGeometry>
        </mxCell>
        <mxCell id="9D6zw0flPlgYOmCyrL12-130" style="edgeStyle=orthogonalEdgeStyle;rounded=0;orthogonalLoop=1;jettySize=auto;html=1;" edge="1" parent="WIyWlLk6GJQsqaUBKTNV-1" source="9D6zw0flPlgYOmCyrL12-62" target="9D6zw0flPlgYOmCyrL12-97">
          <mxGeometry relative="1" as="geometry">
            <mxPoint x="60" y="989.9999999999998" as="targetPoint" />
            <Array as="points">
              <mxPoint x="40" y="830" />
              <mxPoint x="40" y="830" />
            </Array>
          </mxGeometry>
        </mxCell>
        <mxCell id="9D6zw0flPlgYOmCyrL12-131" style="edgeStyle=orthogonalEdgeStyle;rounded=0;orthogonalLoop=1;jettySize=auto;html=1;entryX=0.5;entryY=0;entryDx=0;entryDy=0;" edge="1" parent="WIyWlLk6GJQsqaUBKTNV-1" source="9D6zw0flPlgYOmCyrL12-62" target="9D6zw0flPlgYOmCyrL12-95">
          <mxGeometry relative="1" as="geometry">
            <Array as="points">
              <mxPoint x="90" y="990" />
              <mxPoint x="90" y="990" />
            </Array>
          </mxGeometry>
        </mxCell>
        <mxCell id="9D6zw0flPlgYOmCyrL12-62" value="Verifica dados de atendimento&lt;br&gt;(etapas de atendimento)" style="whiteSpace=wrap;html=1;rounded=0;" vertex="1" parent="WIyWlLk6GJQsqaUBKTNV-1">
          <mxGeometry x="30" y="330" width="230" height="60" as="geometry" />
        </mxCell>
        <mxCell id="9D6zw0flPlgYOmCyrL12-12" value="Envia mensagem" style="text;html=1;align=center;verticalAlign=middle;resizable=0;points=[];autosize=1;strokeColor=none;fillColor=none;" vertex="1" parent="WIyWlLk6GJQsqaUBKTNV-1">
          <mxGeometry x="30" y="20" width="120" height="30" as="geometry" />
        </mxCell>
        <mxCell id="9D6zw0flPlgYOmCyrL12-73" value="" style="endArrow=classic;startArrow=classic;html=1;rounded=0;entryX=0;entryY=0.5;entryDx=0;entryDy=0;entryPerimeter=0;exitX=1;exitY=0.5;exitDx=0;exitDy=0;" edge="1" parent="WIyWlLk6GJQsqaUBKTNV-1" source="9D6zw0flPlgYOmCyrL12-43" target="9D6zw0flPlgYOmCyrL12-44">
          <mxGeometry width="50" height="50" relative="1" as="geometry">
            <mxPoint x="580" y="180" as="sourcePoint" />
            <mxPoint x="650" y="180" as="targetPoint" />
            <Array as="points" />
          </mxGeometry>
        </mxCell>
        <mxCell id="9D6zw0flPlgYOmCyrL12-78" value="" style="endArrow=classic;startArrow=classic;html=1;rounded=0;entryX=-0.032;entryY=0.656;entryDx=0;entryDy=0;entryPerimeter=0;" edge="1" parent="WIyWlLk6GJQsqaUBKTNV-1" target="9D6zw0flPlgYOmCyrL12-43">
          <mxGeometry width="50" height="50" relative="1" as="geometry">
            <mxPoint x="260" y="129" as="sourcePoint" />
            <mxPoint x="480" y="130" as="targetPoint" />
          </mxGeometry>
        </mxCell>
        <mxCell id="9D6zw0flPlgYOmCyrL12-79" value="Dados do cliente&lt;br&gt;(persitentes no BD &lt;br&gt;inclue registros de atendimentos)" style="shape=parallelogram;perimeter=parallelogramPerimeter;whiteSpace=wrap;html=1;fixedSize=1;" vertex="1" parent="WIyWlLk6GJQsqaUBKTNV-1">
          <mxGeometry x="360" y="330" width="120" height="60" as="geometry" />
        </mxCell>
        <mxCell id="9D6zw0flPlgYOmCyrL12-88" style="edgeStyle=orthogonalEdgeStyle;rounded=0;orthogonalLoop=1;jettySize=auto;html=1;entryX=0.35;entryY=0.997;entryDx=0;entryDy=0;entryPerimeter=0;" edge="1" parent="WIyWlLk6GJQsqaUBKTNV-1" source="9D6zw0flPlgYOmCyrL12-85" target="9D6zw0flPlgYOmCyrL12-43">
          <mxGeometry relative="1" as="geometry" />
        </mxCell>
        <mxCell id="9D6zw0flPlgYOmCyrL12-85" value="Criar registro no Banco de dados" style="whiteSpace=wrap;html=1;rounded=0;" vertex="1" parent="WIyWlLk6GJQsqaUBKTNV-1">
          <mxGeometry x="360" y="220" width="120" height="60" as="geometry" />
        </mxCell>
        <mxCell id="9D6zw0flPlgYOmCyrL12-112" style="edgeStyle=orthogonalEdgeStyle;rounded=0;orthogonalLoop=1;jettySize=auto;html=1;entryX=0;entryY=0.5;entryDx=0;entryDy=0;" edge="1" parent="WIyWlLk6GJQsqaUBKTNV-1" source="9D6zw0flPlgYOmCyrL12-91" target="9D6zw0flPlgYOmCyrL12-109">
          <mxGeometry relative="1" as="geometry" />
        </mxCell>
        <mxCell id="9D6zw0flPlgYOmCyrL12-91" value="Etapa 1&lt;br&gt;Vendas&lt;br&gt;(fazendo pedido)" style="rhombus;whiteSpace=wrap;html=1;rounded=1;arcSize=13;" vertex="1" parent="WIyWlLk6GJQsqaUBKTNV-1">
          <mxGeometry x="150" y="660" width="80" height="80" as="geometry" />
        </mxCell>
        <mxCell id="9D6zw0flPlgYOmCyrL12-115" style="edgeStyle=orthogonalEdgeStyle;rounded=0;orthogonalLoop=1;jettySize=auto;html=1;entryX=0;entryY=0.5;entryDx=0;entryDy=0;" edge="1" parent="WIyWlLk6GJQsqaUBKTNV-1" source="9D6zw0flPlgYOmCyrL12-93" target="9D6zw0flPlgYOmCyrL12-114">
          <mxGeometry relative="1" as="geometry" />
        </mxCell>
        <mxCell id="9D6zw0flPlgYOmCyrL12-93" value="Etapa 2&lt;br&gt;Resumo do pedido" style="rhombus;whiteSpace=wrap;html=1;rounded=1;arcSize=13;" vertex="1" parent="WIyWlLk6GJQsqaUBKTNV-1">
          <mxGeometry x="100" y="920" width="80" height="80" as="geometry" />
        </mxCell>
        <mxCell id="9D6zw0flPlgYOmCyrL12-117" style="edgeStyle=orthogonalEdgeStyle;rounded=0;orthogonalLoop=1;jettySize=auto;html=1;entryX=0;entryY=0.5;entryDx=0;entryDy=0;" edge="1" parent="WIyWlLk6GJQsqaUBKTNV-1" source="9D6zw0flPlgYOmCyrL12-95" target="9D6zw0flPlgYOmCyrL12-116">
          <mxGeometry relative="1" as="geometry" />
        </mxCell>
        <mxCell id="9D6zw0flPlgYOmCyrL12-95" value="Etapa 3&lt;br&gt;EndereÃ§o&lt;br&gt;Entrega" style="rhombus;whiteSpace=wrap;html=1;rounded=1;arcSize=13;" vertex="1" parent="WIyWlLk6GJQsqaUBKTNV-1">
          <mxGeometry x="50" y="1080" width="80" height="80" as="geometry" />
        </mxCell>
        <mxCell id="9D6zw0flPlgYOmCyrL12-97" value="Etapa 4&lt;br&gt;Finalizar" style="rhombus;whiteSpace=wrap;html=1;rounded=1;arcSize=13;" vertex="1" parent="WIyWlLk6GJQsqaUBKTNV-1">
          <mxGeometry y="1220" width="80" height="80" as="geometry" />
        </mxCell>
        <mxCell id="9D6zw0flPlgYOmCyrL12-134" style="edgeStyle=orthogonalEdgeStyle;rounded=0;orthogonalLoop=1;jettySize=auto;html=1;" edge="1" parent="WIyWlLk6GJQsqaUBKTNV-1" source="9D6zw0flPlgYOmCyrL12-106" target="9D6zw0flPlgYOmCyrL12-118">
          <mxGeometry relative="1" as="geometry">
            <Array as="points">
              <mxPoint x="380" y="550" />
              <mxPoint x="380" y="550" />
            </Array>
          </mxGeometry>
        </mxCell>
        <mxCell id="9D6zw0flPlgYOmCyrL12-136" style="edgeStyle=orthogonalEdgeStyle;rounded=0;orthogonalLoop=1;jettySize=auto;html=1;" edge="1" parent="WIyWlLk6GJQsqaUBKTNV-1" source="9D6zw0flPlgYOmCyrL12-106" target="9D6zw0flPlgYOmCyrL12-137">
          <mxGeometry relative="1" as="geometry">
            <mxPoint x="450" y="559.9999999999998" as="targetPoint" />
            <Array as="points">
              <mxPoint x="480" y="540" />
              <mxPoint x="480" y="540" />
            </Array>
          </mxGeometry>
        </mxCell>
        <mxCell id="9D6zw0flPlgYOmCyrL12-138" style="edgeStyle=orthogonalEdgeStyle;rounded=0;orthogonalLoop=1;jettySize=auto;html=1;" edge="1" parent="WIyWlLk6GJQsqaUBKTNV-1" source="9D6zw0flPlgYOmCyrL12-106" target="9D6zw0flPlgYOmCyrL12-139">
          <mxGeometry relative="1" as="geometry">
            <mxPoint x="580" y="569.9999999999998" as="targetPoint" />
            <Array as="points">
              <mxPoint x="580" y="520" />
              <mxPoint x="580" y="520" />
            </Array>
          </mxGeometry>
        </mxCell>
        <mxCell id="9D6zw0flPlgYOmCyrL12-106" value="Inicia novo atendimento&lt;br&gt;Apresentando o cardapio e ofertas" style="rounded=0;whiteSpace=wrap;html=1;" vertex="1" parent="WIyWlLk6GJQsqaUBKTNV-1">
          <mxGeometry x="370" y="450" width="240" height="60" as="geometry" />
        </mxCell>
        <mxCell id="9D6zw0flPlgYOmCyrL12-141" style="edgeStyle=orthogonalEdgeStyle;rounded=0;orthogonalLoop=1;jettySize=auto;html=1;" edge="1" parent="WIyWlLk6GJQsqaUBKTNV-1" source="9D6zw0flPlgYOmCyrL12-109" target="9D6zw0flPlgYOmCyrL12-142">
          <mxGeometry relative="1" as="geometry">
            <mxPoint x="540" y="749.9999999999998" as="targetPoint" />
          </mxGeometry>
        </mxCell>
        <mxCell id="9D6zw0flPlgYOmCyrL12-144" value="" style="edgeStyle=orthogonalEdgeStyle;rounded=0;orthogonalLoop=1;jettySize=auto;html=1;" edge="1" parent="WIyWlLk6GJQsqaUBKTNV-1" source="9D6zw0flPlgYOmCyrL12-109" target="9D6zw0flPlgYOmCyrL12-143">
          <mxGeometry relative="1" as="geometry" />
        </mxCell>
        <mxCell id="9D6zw0flPlgYOmCyrL12-109" value="Registra dados do pedido&amp;nbsp;" style="rounded=0;whiteSpace=wrap;html=1;" vertex="1" parent="WIyWlLk6GJQsqaUBKTNV-1">
          <mxGeometry x="330" y="669.9999999999998" width="120" height="60" as="geometry" />
        </mxCell>
        <mxCell id="9D6zw0flPlgYOmCyrL12-152" style="edgeStyle=orthogonalEdgeStyle;rounded=0;orthogonalLoop=1;jettySize=auto;html=1;" edge="1" parent="WIyWlLk6GJQsqaUBKTNV-1" source="9D6zw0flPlgYOmCyrL12-114">
          <mxGeometry relative="1" as="geometry">
            <mxPoint x="550" y="959.9999999999998" as="targetPoint" />
          </mxGeometry>
        </mxCell>
        <mxCell id="9D6zw0flPlgYOmCyrL12-114" value="Envia o resumo do&lt;br&gt;pedido para o cliente&amp;nbsp;" style="rounded=0;whiteSpace=wrap;html=1;" vertex="1" parent="WIyWlLk6GJQsqaUBKTNV-1">
          <mxGeometry x="354" y="929.9999999999998" width="120" height="60" as="geometry" />
        </mxCell>
        <mxCell id="9D6zw0flPlgYOmCyrL12-116" value="" style="rounded=0;whiteSpace=wrap;html=1;" vertex="1" parent="WIyWlLk6GJQsqaUBKTNV-1">
          <mxGeometry x="360" y="1089.9999999999998" width="120" height="60" as="geometry" />
        </mxCell>
        <mxCell id="9D6zw0flPlgYOmCyrL12-133" style="edgeStyle=orthogonalEdgeStyle;rounded=0;orthogonalLoop=1;jettySize=auto;html=1;entryX=0.5;entryY=0;entryDx=0;entryDy=0;" edge="1" parent="WIyWlLk6GJQsqaUBKTNV-1" source="9D6zw0flPlgYOmCyrL12-118" target="9D6zw0flPlgYOmCyrL12-91">
          <mxGeometry relative="1" as="geometry">
            <Array as="points">
              <mxPoint x="190" y="600" />
            </Array>
          </mxGeometry>
        </mxCell>
        <mxCell id="9D6zw0flPlgYOmCyrL12-135" value="Sim" style="edgeLabel;html=1;align=center;verticalAlign=middle;resizable=0;points=[];" vertex="1" connectable="0" parent="9D6zw0flPlgYOmCyrL12-133">
          <mxGeometry x="-0.2695" relative="1" as="geometry">
            <mxPoint as="offset" />
          </mxGeometry>
        </mxCell>
        <mxCell id="9D6zw0flPlgYOmCyrL12-118" value="Fazer pedido?" style="rhombus;whiteSpace=wrap;html=1;" vertex="1" parent="WIyWlLk6GJQsqaUBKTNV-1">
          <mxGeometry x="340" y="560" width="80" height="80" as="geometry" />
        </mxCell>
        <mxCell id="9D6zw0flPlgYOmCyrL12-137" value="Ver situaÃ§Ã£o do pedido?" style="rhombus;whiteSpace=wrap;html=1;" vertex="1" parent="WIyWlLk6GJQsqaUBKTNV-1">
          <mxGeometry x="440" y="559.9999999999998" width="80" height="80" as="geometry" />
        </mxCell>
        <mxCell id="9D6zw0flPlgYOmCyrL12-139" value="Falar&amp;nbsp; com um representante&lt;br&gt;humano?" style="rhombus;whiteSpace=wrap;html=1;" vertex="1" parent="WIyWlLk6GJQsqaUBKTNV-1">
          <mxGeometry x="540" y="559.9999999999998" width="80" height="80" as="geometry" />
        </mxCell>
        <mxCell id="9D6zw0flPlgYOmCyrL12-142" value="Dados do&amp;nbsp;&lt;br&gt;pedido" style="shape=dataStorage;whiteSpace=wrap;html=1;fixedSize=1;" vertex="1" parent="WIyWlLk6GJQsqaUBKTNV-1">
          <mxGeometry x="640" y="659.9999999999998" width="100" height="80" as="geometry" />
        </mxCell>
        <mxCell id="9D6zw0flPlgYOmCyrL12-146" style="edgeStyle=orthogonalEdgeStyle;rounded=0;orthogonalLoop=1;jettySize=auto;html=1;entryX=0.5;entryY=1;entryDx=0;entryDy=0;" edge="1" parent="WIyWlLk6GJQsqaUBKTNV-1" source="9D6zw0flPlgYOmCyrL12-143" target="9D6zw0flPlgYOmCyrL12-91">
          <mxGeometry relative="1" as="geometry">
            <mxPoint x="380" y="921" as="sourcePoint" />
          </mxGeometry>
        </mxCell>
        <mxCell id="9D6zw0flPlgYOmCyrL12-147" value="sim" style="edgeLabel;html=1;align=center;verticalAlign=middle;resizable=0;points=[];" vertex="1" connectable="0" parent="9D6zw0flPlgYOmCyrL12-146">
          <mxGeometry x="-0.6545" relative="1" as="geometry">
            <mxPoint x="-2" as="offset" />
          </mxGeometry>
        </mxCell>
        <mxCell id="9D6zw0flPlgYOmCyrL12-149" style="edgeStyle=orthogonalEdgeStyle;rounded=0;orthogonalLoop=1;jettySize=auto;html=1;entryX=0.5;entryY=0;entryDx=0;entryDy=0;" edge="1" parent="WIyWlLk6GJQsqaUBKTNV-1" source="9D6zw0flPlgYOmCyrL12-143" target="9D6zw0flPlgYOmCyrL12-93">
          <mxGeometry relative="1" as="geometry">
            <mxPoint x="140" y="860" as="targetPoint" />
            <Array as="points">
              <mxPoint x="140" y="870" />
            </Array>
          </mxGeometry>
        </mxCell>
        <mxCell id="9D6zw0flPlgYOmCyrL12-151" value="NÃ£o" style="edgeLabel;html=1;align=center;verticalAlign=middle;resizable=0;points=[];" vertex="1" connectable="0" parent="9D6zw0flPlgYOmCyrL12-149">
          <mxGeometry x="-0.4317" y="1" relative="1" as="geometry">
            <mxPoint as="offset" />
          </mxGeometry>
        </mxCell>
        <mxCell id="9D6zw0flPlgYOmCyrL12-143" value="Contiar ADD/&amp;nbsp;&lt;br&gt;item ao pedido" style="rhombus;whiteSpace=wrap;html=1;rounded=0;" vertex="1" parent="WIyWlLk6GJQsqaUBKTNV-1">
          <mxGeometry x="350" y="789.9999999999998" width="80" height="80" as="geometry" />
        </mxCell>
      </root>
    </mxGraphModel>
  </diagram>
</mxfile>
